<?xml version="1.0" standalone="no"?>
<!DOCTYPE svg PUBLIC "-//W3C//DTD SVG 20010904//EN"
 "http://www.w3.org/TR/2001/REC-SVG-20010904/DTD/svg10.dtd">
<svg version="1.0" xmlns="http://www.w3.org/2000/svg"
 width="16.000000pt" height="16.000000pt" viewBox="0 0 16.000000 16.000000"
 preserveAspectRatio="xMidYMid meet">
<metadata>
Created by potrace 1.11, written by Peter Selinger 2001-2013
</metadata>
<g transform="translate(0.000000,16.000000) scale(0.004372,-0.004372)"
fill="#000000" stroke="none">
<path d="M1817 3614 c-1 -1 -37 -4 -79 -5 -251 -7 -552 -95 -788 -230 -454
-259 -767 -694 -869 -1205 -25 -127 -32 -206 -32 -351 0 -124 5 -179 27 -313
30 -185 119 -422 226 -598 29 -48 56 -91 60 -97 4 -5 27 -35 50 -65 66 -86 78
-99 172 -192 179 -178 402 -319 636 -403 83 -30 195 -62 240 -70 19 -3 42 -8
50 -10 8 -2 39 -7 69 -10 30 -4 63 -9 75 -11 32 -7 266 -6 343 1 37 3 113 15
168 25 685 132 1231 649 1394 1324 17 67 32 141 36 166 3 25 8 63 11 85 5 46
6 310 0 340 -2 11 -7 46 -11 79 -9 78 -11 88 -39 197 -161 636 -661 1132
-1298 1288 -134 33 -163 38 -283 47 -124 9 -155 11 -158 8z m311 -93 c415 -79
781 -296 1039 -616 174 -216 318 -529 348 -760 4 -28 9 -53 11 -56 22 -37 21
-482 -1 -519 -1 -3 -6 -26 -9 -51 -24 -180 -137 -461 -258 -639 -115 -170
-270 -331 -424 -441 -88 -63 -202 -129 -190 -111 6 11 -37 89 -59 104 -7 5 -7
8 0 8 6 0 5 3 -1 8 -6 4 -26 32 -45 62 -18 30 -37 60 -41 65 -5 6 -70 104
-144 220 -75 116 -157 242 -183 280 -25 39 -44 72 -43 74 2 2 -1 7 -7 10 -10
6 -89 123 -93 139 -1 4 -10 16 -20 26 -10 11 -18 26 -18 33 0 7 -4 13 -9 13
-4 0 -18 19 -31 43 l-23 43 69 97 c38 53 89 126 114 162 36 53 49 64 65 59 34
-10 119 -11 150 -2 136 42 267 164 348 323 82 164 82 344 0 429 -95 98 -256
66 -410 -82 -131 -125 -211 -311 -200 -462 6 -75 8 -87 25 -118 7 -12 10 -28
5 -35 -14 -22 -137 -182 -181 -235 l-45 -53 -78 121 c-44 67 -79 126 -79 131
0 6 -4 7 -10 4 -5 -3 -10 -2 -10 4 0 12 -341 525 -352 529 -4 2 -8 8 -8 13 0
6 -9 19 -20 31 -11 12 -20 28 -20 35 0 7 -4 13 -10 13 -5 0 -10 6 -10 14 0 8
-4 16 -8 18 -5 2 -27 31 -51 66 -37 55 -44 61 -61 52 -11 -6 -20 -13 -20 -15
0 -5 39 -76 86 -158 19 -32 34 -62 34 -68 0 -5 3 -9 8 -9 4 0 16 -19 27 -43
11 -23 22 -44 26 -47 6 -6 73 -123 74 -130 0 -3 12 -23 26 -45 14 -22 34 -53
43 -70 9 -16 28 -48 42 -70 14 -22 27 -48 31 -57 3 -10 8 -18 12 -18 3 0 18
-21 31 -47 14 -27 28 -49 33 -51 4 -2 7 -7 7 -11 0 -5 25 -48 55 -97 86 -141
115 -191 115 -200 0 -5 -11 -22 -23 -38 l-24 -29 -55 84 c-245 371 -603 904
-622 926 -28 32 -36 43 -35 49 0 3 -9 17 -21 31 -20 23 -24 24 -37 10 -14 -13
-12 -22 18 -78 19 -35 37 -65 41 -67 5 -2 8 -8 8 -13 0 -4 19 -41 43 -81 23
-40 49 -86 57 -103 8 -16 19 -34 23 -40 4 -5 46 -75 92 -155 46 -80 88 -150
94 -157 6 -7 11 -14 11 -16 0 -7 162 -272 176 -288 8 -9 11 -19 8 -22 -4 -4 1
-9 10 -13 9 -3 13 -10 10 -15 -3 -5 -2 -9 3 -9 4 0 15 -15 22 -32 8 -18 25
-48 38 -67 13 -18 23 -39 23 -46 0 -11 -106 -151 -163 -215 -13 -14 -47 -56
-77 -95 -30 -38 -62 -79 -72 -90 -9 -11 -45 -56 -80 -100 -34 -44 -69 -87 -75
-95 -59 -72 -223 -293 -223 -301 0 -26 -189 111 -303 220 -145 138 -269 308
-357 487 -49 101 -123 306 -134 374 -3 19 -8 46 -11 60 -56 267 -33 601 61
871 213 614 724 1041 1373 1149 148 25 395 21 549 -9z m-267 -2205 c5 3 9 -1
9 -8 0 -7 23 -48 50 -91 28 -43 50 -82 50 -88 0 -5 5 -9 10 -9 6 0 10 -7 10
-15 0 -8 5 -15 12 -15 6 0 9 -3 5 -6 -3 -3 2 -14 11 -24 9 -10 26 -36 37 -57
11 -21 22 -40 25 -43 3 -3 10 -14 17 -25 69 -116 149 -241 155 -243 4 -2 8 -8
8 -14 0 -5 15 -33 33 -61 84 -130 217 -349 217 -357 0 -9 -39 -25 -44 -18 -14
18 -295 458 -308 482 -10 17 -18 26 -18 21 -1 -6 -9 7 -19 28 -9 20 -20 34
-24 30 -4 -3 -7 3 -7 15 0 12 -4 22 -9 22 -5 0 -16 16 -25 35 -9 19 -22 35
-28 35 -6 0 -9 3 -5 6 3 4 1 12 -6 20 -30 34 -37 44 -30 44 4 0 3 4 -2 8 -6 4
-26 32 -45 62 -19 30 -38 57 -42 58 -5 2 -8 7 -8 12 0 4 -20 39 -45 76 -39 61
-43 71 -32 89 8 11 17 27 22 35 6 10 10 11 13 2 2 -7 8 -10 13 -6z m-104 -229
c8 -17 19 -35 24 -41 11 -12 181 -284 209 -331 9 -16 54 -88 98 -158 45 -71
82 -133 82 -138 0 -5 5 -9 10 -9 6 0 10 -5 10 -11 0 -6 14 -30 30 -54 17 -24
30 -48 30 -54 0 -6 4 -11 9 -11 5 0 11 -8 14 -17 3 -10 15 -32 26 -49 l21 -31
-92 -21 c-51 -12 -106 -24 -123 -26 -312 -49 -666 -7 -933 110 l-52 23 62 88
c34 48 65 90 68 93 3 3 42 59 86 125 45 66 137 201 204 300 67 99 134 199 148
222 29 46 40 45 69 -10z"/>
<path d="M1505 3480 c-12 -20 6 -463 21 -498 22 -54 91 -71 177 -43 19 7 41
18 47 26 10 12 15 12 36 -2 37 -24 124 -26 168 -3 37 18 38 18 71 -1 47 -28
125 -35 164 -16 28 14 32 14 55 -4 38 -30 95 -46 163 -47 88 -1 98 13 98 132
1 124 -3 146 -26 146 -17 0 -19 -9 -19 -104 0 -123 -9 -141 -69 -132 -107 15
-146 48 -154 131 -6 63 -23 99 -53 116 -33 17 -92 16 -110 -3 -19 -18 -21 -72
-5 -92 15 -18 61 -30 73 -18 13 13 -1 39 -24 45 -27 8 -18 31 15 35 63 8 85
-144 24 -164 -28 -9 -74 -6 -98 7 -20 10 -51 62 -48 82 4 34 -2 114 -11 127
-19 30 -33 -7 -34 -89 -2 -91 -12 -108 -67 -120 -74 -16 -122 29 -112 104 7
51 20 67 52 63 32 -4 40 -33 11 -41 -24 -6 -27 -32 -4 -41 9 -3 28 0 42 7 39
18 42 68 7 103 -23 23 -33 26 -67 21 -61 -8 -79 -32 -88 -116 -9 -85 -25 -106
-85 -116 -48 -7 -79 4 -89 32 -4 9 -9 92 -12 183 -8 273 -11 300 -34 300 -5 0
-12 -5 -15 -10z"/>
<path d="M1369 3443 c-1 -10 0 -74 1 -143 7 -334 7 -336 -18 -362 -27 -29
-124 -62 -158 -54 -26 7 -30 19 -39 110 -3 34 -12 67 -22 78 -37 41 -126 8
-167 -62 -17 -29 -21 -51 -20 -126 1 -50 7 -101 13 -113 17 -30 58 -24 85 12
36 48 35 239 -1 203 -5 -4 -11 -45 -14 -92 -3 -46 -8 -87 -12 -91 -17 -16 -28
18 -29 88 -2 98 25 148 78 149 32 0 42 -19 48 -90 6 -83 11 -96 45 -110 49
-20 176 19 228 69 22 21 38 80 36 131 0 14 -4 110 -7 214 -4 104 -9 192 -12
197 -9 16 -34 10 -35 -8z"/>
<path d="M2683 2913 c3 -114 1 -195 -5 -206 -8 -15 -19 -18 -60 -15 -62 4 -73
-13 -24 -36 52 -25 102 -21 122 9 14 21 15 50 11 212 -5 196 -10 223 -34 223
-13 0 -14 -26 -10 -187z"/>
<path d="M914 1463 c-31 -31 -44 -63 -44 -109 0 -32 2 -34 20 -24 11 6 19 14
18 18 -4 11 26 72 34 72 14 0 8 -24 -11 -54 -20 -31 -18 -56 5 -56 24 0 73 51
79 82 7 32 -11 88 -29 89 -6 0 -19 2 -29 4 -10 2 -29 -8 -43 -22z"/>
<path d="M3038 1442 c-14 -8 -32 -27 -40 -41 -18 -31 -18 -103 0 -108 6 -3 12
2 12 10 0 17 28 75 41 82 15 10 10 -18 -9 -50 -10 -16 -16 -38 -14 -47 3 -16
6 -16 32 -3 64 33 88 100 52 146 -24 28 -42 31 -74 11z"/>
<path d="M800 1429 c0 -11 7 -19 15 -19 8 0 18 0 23 0 4 0 7 8 7 18 0 11 -8
17 -22 18 -16 1 -23 -4 -23 -17z"/>
<path d="M653 1394 c-14 -14 -22 -29 -17 -33 5 -3 9 -13 9 -21 -1 -18 23 -60
45 -78 26 -21 130 -8 130 18 0 5 -29 23 -65 40 -60 29 -94 54 -63 48 7 -2 15
-5 18 -8 13 -13 102 -50 110 -45 15 9 -2 46 -34 70 -17 13 -48 26 -69 29 -32
5 -42 2 -64 -20z"/>
<path d="M2915 1410 c-9 -15 14 -40 31 -33 19 7 18 29 -2 37 -21 8 -22 8 -29
-4z"/>
<path d="M2760 1363 c-13 -17 -17 -30 -11 -42 5 -9 9 -19 10 -24 1 -8 30 -67
34 -68 66 -14 141 -1 131 23 -2 7 -30 24 -60 38 -31 14 -60 31 -66 38 -16 19
-4 15 62 -20 72 -38 96 -29 61 21 -28 39 -48 50 -100 55 -35 3 -44 0 -61 -21z"/>
<path d="M1026 1324 c-7 -19 1 -34 19 -34 18 0 26 25 12 39 -15 15 -24 14 -31
-5z"/>
<path d="M3140 1295 c-13 -16 -6 -35 15 -35 15 0 24 19 17 38 -6 16 -17 15
-32 -3z"/>
<path d="M873 1283 c-18 -6 -16 -43 1 -43 8 0 18 4 21 10 9 14 -8 38 -22 33z"/>
<path d="M936 1256 c3 -8 25 -22 50 -32 25 -10 40 -22 35 -27 -5 -5 -27 0 -52
12 -51 25 -49 25 -49 6 0 -7 8 -19 18 -24 9 -6 13 -11 7 -11 -5 0 7 -11 29
-24 49 -29 74 -28 98 5 26 34 13 61 -42 88 -22 11 -37 14 -33 8 5 -9 3 -9 -8
-1 -21 16 -59 15 -53 0z"/>
<path d="M2976 1247 c-16 -12 -17 -14 -1 -27 20 -17 41 0 28 24 -7 14 -12 14
-27 3z"/>
<path d="M3050 1227 c0 -8 20 -22 44 -32 25 -10 43 -23 40 -27 -7 -10 -46 0
-55 14 -3 5 -10 10 -15 10 -5 0 -15 3 -22 6 -48 18 16 -64 65 -85 35 -14 58
-8 82 20 16 20 -3 67 -29 74 -11 3 -20 9 -20 12 0 4 -6 8 -12 8 -7 0 -28 4
-45 7 -24 5 -33 3 -33 -7z"/>
<path d="M737 1207 c-10 -26 8 -39 27 -18 15 17 15 19 1 25 -22 8 -22 8 -28
-7z"/>
<path d="M808 1196 c-10 -7 -18 -18 -18 -25 0 -6 -4 -11 -10 -11 -8 0 -8 -21
-1 -73 2 -15 46 -24 68 -14 23 10 36 42 38 95 1 44 -13 40 -30 -8 -8 -24 -19
-39 -30 -43 -17 -7 -9 25 13 50 10 10 18 24 20 31 3 16 -28 15 -50 -2z"/>
<path d="M2850 1165 c0 -29 3 -30 24 -9 18 17 13 34 -10 34 -8 0 -14 -10 -14
-25z"/>
<path d="M2935 1173 c-11 -8 -26 -18 -32 -21 -16 -9 -24 -71 -12 -93 27 -52
98 -11 102 58 3 53 -12 60 -28 13 -6 -19 -20 -37 -29 -38 -15 -3 -16 -1 -4 19
7 13 19 29 26 37 26 28 8 48 -23 25z"/>
<path d="M907 1096 c-7 -17 18 -40 33 -31 5 3 10 15 10 26 0 23 -35 27 -43 5z"/>
<path d="M3027 1073 c-19 -22 -8 -47 16 -37 18 7 21 22 9 42 -7 10 -12 8 -25
-5z"/>
</g>
</svg>
